<?xml version="1.0" encoding="utf-8" ?>
<svg xmlns="http://www.w3.org/2000/svg" xmlns:xlink="http://www.w3.org/1999/xlink" width="512" height="512">
	<clipPath id="cl_3">
		<rect width="512" height="512" rx="80" ry="80"/>
	</clipPath>
	<g clip-path="url(#cl_3)">
		<path fill="#2A2335" d="M0 432L0 80Q0 78.03611 0.096363492 76.074585Q0.19272698 74.11306 0.38522184 72.15863Q0.57771665 70.204193 0.86587906 68.261559Q1.1540415 66.318924 1.5371773 64.392769Q1.9203131 62.466614 2.3974993 60.561577Q2.8746858 58.656548 3.4447727 56.777225Q4.0148597 54.897896 4.6764741 53.048809Q5.338088 51.199718 6.0896363 49.385323Q6.8411846 47.570923 7.6808553 45.795593Q8.5205269 44.020256 9.4462976 42.288261Q10.372068 40.556267 11.38171 38.87178Q12.39135 37.187294 13.482429 35.554379Q14.573507 33.921463 15.743395 32.344051Q16.913284 30.766644 18.159163 29.248535Q19.405041 27.730427 20.723907 26.27528Q22.042776 24.820135 23.431456 23.431456Q24.820135 22.042776 26.27528 20.723907Q27.730429 19.405041 29.248537 18.159163Q30.766644 16.913284 32.344055 15.743395Q33.921463 14.573507 35.554379 13.482429Q37.187294 12.39135 38.87178 11.381708Q40.556267 10.372068 42.288261 9.4462976Q44.020256 8.5205269 45.795586 7.6808553Q47.570923 6.8411846 49.385319 6.0896363Q51.199715 5.338088 53.048805 4.6764736Q54.897896 4.0148597 56.777225 3.4447727Q58.656551 2.8746858 60.561584 2.3974996Q62.466621 1.9203131 64.392776 1.5371773Q66.318924 1.1540415 68.261559 0.86587906Q70.204193 0.57771665 72.15863 0.38522184Q74.11306 0.19272698 76.074585 0.096363492Q78.03611 0 80 0L432 0Q433.96387 0 435.92542 0.096363492Q437.88693 0.19272698 439.84137 0.38522184Q441.79578 0.57771665 443.7384 0.86587906Q445.68103 1.1540415 447.60718 1.5371773Q449.53333 1.9203131 451.43835 2.3974993Q453.34338 2.8746858 455.22272 3.4447727Q457.10205 4.0148597 458.95114 4.6764741Q460.80023 5.338088 462.61462 6.0896363Q464.42902 6.8411846 466.20438 7.6808553Q467.97974 8.5205269 469.71173 9.4462976Q471.44373 10.372068 473.12817 11.38171Q474.81265 12.39135 476.44556 13.482429Q478.07849 14.573507 479.65591 15.743395Q481.23331 16.913284 482.75143 18.159163Q484.26953 19.405041 485.72467 20.723907Q487.17981 22.042776 488.56848 23.431456Q489.95715 24.820135 491.276 26.27528Q492.59491 27.730429 493.84079 29.248537Q495.08664 30.766644 496.25653 32.344055Q497.42639 33.921463 498.51749 35.554379Q499.60858 37.187294 500.61823 38.87178Q501.62787 40.556267 502.55368 42.288261Q503.47943 44.020256 504.31909 45.795586Q505.15875 47.570923 505.91031 49.385319Q506.66187 51.199715 507.32349 53.048805Q507.98511 54.897896 508.55518 56.777225Q509.12524 58.656551 509.60245 60.561584Q510.07962 62.466621 510.46277 64.392776Q510.84592 66.318924 511.13409 68.261559Q511.42224 70.204193 511.61478 72.15863Q511.80725 74.11306 511.90363 76.074585Q512 78.03611 512 80L512 432Q512 433.96387 511.90363 435.92542Q511.80725 437.88693 511.61481 439.84137Q511.42227 441.79578 511.13409 443.7384Q510.84592 445.68103 510.46277 447.60718Q510.07962 449.53333 509.60242 451.43835Q509.12524 453.34338 508.55518 455.22272Q507.98508 457.10205 507.32343 458.95114Q506.66183 460.80023 505.91028 462.61462Q505.15875 464.42902 504.31906 466.20438Q503.4794 467.97974 502.55365 469.71173Q501.62787 471.44373 500.61819 473.12817Q499.60858 474.81265 498.51749 476.44556Q497.42639 478.07849 496.25653 479.65591Q495.08664 481.23331 493.84079 482.75143Q492.59491 484.26953 491.27603 485.72467Q489.95715 487.17981 488.56848 488.56848Q487.17981 489.95715 485.72467 491.276Q484.26953 492.59491 482.75143 493.84079Q481.23331 495.08664 479.65588 496.25653Q478.07849 497.42639 476.44556 498.51749Q474.81265 499.60858 473.12817 500.61823Q471.44373 501.62787 469.71173 502.55368Q467.97974 503.47943 466.20438 504.31909Q464.42902 505.15875 462.61462 505.91031Q460.80023 506.66187 458.95114 507.32349Q457.10205 507.98511 455.22275 508.55518Q453.34344 509.12524 451.43842 509.60245Q449.53336 510.07962 447.60721 510.46277Q445.68103 510.84592 443.73843 511.13409Q441.79578 511.42224 439.84137 511.61478Q437.88693 511.80725 435.92542 511.90363Q433.96387 512 432 512L80 512Q78.03611 512 76.074585 511.90363Q74.11306 511.80725 72.15863 511.61481Q70.204193 511.42227 68.261559 511.13409Q66.318924 510.84592 64.392769 510.46277Q62.466614 510.07962 60.561577 509.60242Q58.656548 509.12524 56.777225 508.55518Q54.897896 507.98508 53.048809 507.32343Q51.199718 506.66183 49.385323 505.91028Q47.570923 505.15875 45.795593 504.31906Q44.020256 503.4794 42.288261 502.55365Q40.556267 501.62787 38.87178 500.61819Q37.187294 499.60858 35.554379 498.51749Q33.921463 497.42639 32.344051 496.25653Q30.766644 495.08664 29.248535 493.84079Q27.730427 492.59491 26.27528 491.27603Q24.820135 489.95715 23.431456 488.56848Q22.042776 487.17981 20.723907 485.72467Q19.405041 484.26953 18.159163 482.75143Q16.913284 481.23331 15.743395 479.65588Q14.573507 478.07849 13.482429 476.44556Q12.39135 474.81265 11.381708 473.12817Q10.372068 471.44373 9.4462976 469.71173Q8.5205269 467.97974 7.6808553 466.20438Q6.8411846 464.42902 6.0896363 462.61462Q5.338088 460.80023 4.6764736 458.95114Q4.0148597 457.10205 3.4447727 455.22275Q2.8746858 453.34344 2.3974996 451.43842Q1.9203131 449.53336 1.5371773 447.60721Q1.1540415 445.68103 0.86587906 443.73843Q0.57771665 441.79578 0.38522184 439.84137Q0.19272698 437.88693 0.096363492 435.92542Q0 433.96387 0 432Z"/>
		<path fill="#E8D5E0" transform="translate(138.845 355)" d="M137.49512 114.27246Q127.0166 114.27246 118.59131 110.30762Q110.16602 106.41357 105.35156 98.413086Q100.60791 90.483398 100.60791 78.87207Q100.60791 65.844727 108.11279 52.463379Q115.68848 39.152832 128.57422 25.913086Q141.53076 12.744141 157.74414 0Q174.02832 -12.744141 191.65771 -24.638672Q202.41943 -31.931152 212.96875 -38.444824Q223.58887 -44.958496 233.57178 -50.905762Q243.62549 -56.853027 251.97998 -62.092285Q256.36963 -64.641113 259.55566 -63.791504Q262.7417 -62.941895 265.07812 -58.835449Q267.98096 -53.950195 266.91895 -50.622559Q265.92773 -47.294922 260.97168 -44.675293Q251.97998 -39.152832 241.71387 -32.922363Q231.44775 -26.691895 220.68604 -19.682617Q209.92432 -12.744141 199.2334 -5.5224609Q185.00244 4.6728516 171.9751 15.080566Q158.94775 25.488281 148.61084 36.25Q138.34473 47.011719 132.53906 57.419434Q126.7334 67.827148 126.7334 77.739258Q126.7334 84.677734 129.91943 88.146973Q133.10547 91.616211 139.19434 91.616211Q149.95605 91.616211 156.75293 81.137695Q163.5498 70.72998 168.22266 50.76416L193.99414 -62.658691Q184.15283 -48.427734 173.67432 -37.382812Q163.2666 -26.408691 151.93848 -18.974609Q140.68115 -11.611328 128.64502 -7.6464844Q116.60889 -3.7524414 104.07715 -3.7524414Q85.810547 -3.7524414 71.296387 -10.124512Q56.853027 -16.496582 46.516113 -28.532715Q36.25 -40.568848 30.727539 -57.702637Q25.205078 -74.836426 25.205078 -96.289062Q25.205078 -118.87451 30.302734 -139.47754Q35.400391 -160.08057 45.100098 -178.20557Q54.799805 -196.33057 68.110352 -210.98633Q81.491699 -225.64209 97.84668 -236.19141Q114.27246 -246.81152 132.96387 -252.40479Q151.65527 -258.06885 171.9751 -258.06885Q188.18848 -258.06885 202.27783 -254.88281Q216.36719 -251.69678 228.54492 -245.0415Q240.72266 -238.38623 250.56396 -228.54492Q253.18359 -225.92529 253.04199 -222.59766Q252.90039 -219.27002 249.07715 -215.16357Q245.0415 -211.12793 241.43066 -211.26953Q237.81982 -211.41113 234.91699 -213.46436Q225.35889 -220.96924 214.45557 -225.28809Q203.55225 -229.67773 192.36572 -231.51855Q181.25 -233.43018 170.20508 -233.43018Q154.2749 -233.43018 139.19434 -228.47412Q124.11377 -223.58887 110.73242 -214.45557Q97.421875 -205.32227 86.660156 -192.71973Q75.969238 -180.11719 68.110352 -164.68262Q60.322266 -149.31885 56.074219 -132.04346Q51.896973 -114.83887 51.896973 -96.289062Q51.896973 -79.155273 55.649414 -66.411133Q59.472656 -53.666992 66.694336 -45.241699Q73.916016 -36.816406 83.757324 -32.568359Q93.669434 -28.391113 106.13037 -28.391113Q121.21094 -28.391113 135.8667 -35.612793Q150.52246 -42.905273 164.11621 -56.782227Q177.78076 -70.72998 190.1001 -90.412598Q202.41943 -110.16602 212.26074 -135.15869Q213.18115 -139.19434 216.79199 -141.03516Q220.40283 -142.94678 226.7749 -142.94678Q239.51904 -142.94678 237.53662 -135.15869L194.91455 47.294922Q189.67529 69.313965 182.24121 84.111328Q174.87793 98.908691 164.11621 106.55518Q153.42529 114.27246 137.49512 114.27246Z"/>
	</g>
</svg>
